# ProBuilder 4.2.3
# https://unity3d.com/unity/features/worldbuilding/probuilder
# 01.04.2021 19:52:42

mtllib ./SideCylinder.mtl
o SideCylinder

g Capsule (2)
v 0.3534454 0.5004234 -0.3534455
v 0.3534455 -0.5004234 -0.3534455
v 0.4134531 -0.5004234 -0.2808984
v 0.4134532 0.5004234 -0.2808984
v 0.4597642 -0.5004234 -0.1961229
v 0.4597643 0.5004234 -0.196123
v 0.4895243 -0.5004234 -0.1010614
v 0.4895244 0.5004234 -0.1010614
v 0.5 -0.5001526 5.559791E-08
v 0.5 0.5001526 2.698768E-08
v 0.4895243 -0.5001526 0.1010615
v 0.4134532 0.5001526 0.2808985
v 0.4134531 -0.5001526 0.2808985
v 0.3534455 -0.5001526 0.3534455
v 0.3534454 0.5001526 0.3534455
v 0.4895244 0.5001526 0.1010615
v 0.4597642 -0.5001526 0.196123
v 0.4597643 0.5001526 0.196123
v -0.3534455 0.5004234 -0.3534455
v -0.3534455 -0.5004234 -0.3534455
v -0.2808986 -0.5004234 -0.4134532
v -0.2808985 0.5004234 -0.4134532
v -0.196123 -0.5004234 -0.4597643
v -0.1961231 0.5004234 -0.4597643
v -0.1010615 -0.5004234 -0.4895244
v -0.1010615 0.5004234 -0.4895243
v -2.223917E-08 -0.5004234 -0.5
v 1.59078E-08 0.5004234 -0.5
v 0.1010613 -0.5004234 -0.4895244
v 0.2808985 0.5004234 -0.4134532
v 0.2808985 -0.5004234 -0.4134532
v 0.1010614 0.5004234 -0.4895243
v 0.196123 -0.5004234 -0.4597643
v 0.196123 0.5004234 -0.4597643
v -0.5 0.5001526 2.698768E-08
v -0.5 -0.5001526 2.698768E-08
v -0.4895244 -0.5004234 -0.1010614
v -0.4895243 0.5004234 -0.1010614
v -0.4597643 -0.5004234 -0.1961229
v -0.4597642 0.5004234 -0.196123
v -0.4134532 -0.5004234 -0.2808984
v -0.4134531 0.5004234 -0.2808984
v -0.3534455 0.5001526 0.3534455
v -0.3534455 -0.5001526 0.3534455
v -0.4134532 -0.5001526 0.2808985
v -0.4134531 0.5001526 0.2808985
v -0.4597643 -0.5001526 0.196123
v -0.4597642 0.5001526 0.196123
v -0.4895244 -0.5001526 0.1010615
v -0.4895243 0.5001526 0.1010615
v 0.2808985 -0.5001526 0.4134532
v 0.2808985 0.5001526 0.4134532
v 0.196123 -0.5001526 0.4597644
v 0.196123 0.5001526 0.4597644
v 0.1010613 -0.5001526 0.4895243
v 0.1010614 0.5001526 0.4895243
v -2.223917E-08 -0.5001526 0.5
v 1.59078E-08 0.5001526 0.5
v -0.1010615 -0.5001526 0.4895243
v -0.2808985 0.5001526 0.4134532
v -0.2808986 -0.5001526 0.4134532
v -0.1010615 0.5001526 0.4895243
v -0.196123 -0.5001526 0.4597644
v -0.1961231 0.5001526 0.4597644

vt 0.6252897 0.7463356
vt 0.6252897 0.2536645
vt 0.5952017 0.2536645
vt 0.5952017 0.7463356
vt 0.564328 0.2536645
vt 0.564328 0.7463356
vt 0.5324886 0.2536645
vt 0.5324886 0.7463356
vt 0.5000156 0.2536645
vt 0.5000156 0.7463356
vt 0.4675425 0.2536645
vt 0.4048294 0.7463356
vt 0.4048294 0.2536645
vt 0.3747415 0.2536645
vt 0.3747414 0.7463356
vt 0.4675425 0.7463356
vt 0.4357032 0.2536645
vt 0.4357032 0.7463356
vt 0.875838 0.7463356
vt 0.875838 0.2536645
vt 0.84575 0.2536644
vt 0.84575 0.7463356
vt 0.8148762 0.2536645
vt 0.8148762 0.7463356
vt 0.7830369 0.2536645
vt 0.7830369 0.7463356
vt 0.7505639 0.2536645
vt 0.7505639 0.7463356
vt 0.7180908 0.2536645
vt 0.6553777 0.7463356
vt 0.6553777 0.2536645
vt 0.7180908 0.7463356
vt 0.6862515 0.2536645
vt 0.6862515 0.7463356
vt 0.9989232 0.7463356
vt 0.9989232 0.2536645
vt 0.968639 0.2536645
vt 0.968639 0.7463356
vt 0.9367998 0.2536645
vt 0.9367998 0.7463356
vt 0.905926 0.2536645
vt 0.905926 0.7463356
vt 0.1241932 0.7463356
vt 0.1241932 0.2536645
vt 0.09410527 0.2536645
vt 0.09410527 0.7463356
vt 0.06323147 0.2536645
vt 0.06323147 0.7463356
vt 0.03139222 0.2536645
vt 0.03139225 0.7463356
vt -0.001080871 0.2536645
vt -0.001080871 0.7463356
vt 0.3446535 0.2536645
vt 0.3446535 0.7463356
vt 0.3137797 0.2536645
vt 0.3137797 0.7463356
vt 0.2819405 0.2536645
vt 0.2819405 0.7463356
vt 0.2494673 0.2536645
vt 0.2494674 0.7463356
vt 0.2169943 0.2536645
vt 0.1542812 0.7463356
vt 0.1542812 0.2536644
vt 0.2169943 0.7463356
vt 0.185155 0.2536645
vt 0.185155 0.7463356

vn 0.7071071 1.330197E-08 -0.7071065
vn 0.8278503 -4.514031E-08 -0.5609491
vn 0.9204019 -8.624867E-08 -0.3909736
vn 0.9793972 -1.106321E-07 -0.2019435
vn 1 -2.887379E-08 2.883843E-07
vn 0.9793972 -8.619329E-08 0.2019431
vn 0.8278502 -4.516479E-08 0.5609494
vn 0.7071066 1.330914E-08 0.7071069
vn 0.9204019 -8.940784E-08 0.3909736
vn -0.7071073 1.90638E-08 -0.7071063
vn -0.560949 4.77477E-08 -0.8278504
vn -0.3909735 -1.767135E-09 -0.9204019
vn -0.2019431 4.902182E-08 -0.9793972
vn -8.9886E-08 1.580681E-08 -1
vn 0.2019433 2.935147E-08 -0.9793972
vn 0.5609492 2.146996E-08 -0.8278502
vn 0.3909732 8.690322E-09 -0.9204021
vn -1 1.488855E-08 1.19848E-07
vn -0.9793972 4.344359E-08 -0.2019434
vn -0.9204019 2.984204E-08 -0.3909736
vn -0.8278504 2.285838E-08 -0.560949
vn -0.7071068 5.76497E-09 0.7071068
vn -0.8278502 1.889869E-08 0.5609491
vn -0.9204019 2.742174E-08 0.3909736
vn -0.9793972 5.121496E-08 0.2019432
vn 0.5609495 2.148159E-08 0.82785
vn 0.390973 3.588116E-09 0.9204022
vn 0.2019427 -8.505171E-09 0.9793973
vn 5.992401E-08 -7.257461E-10 1
vn -0.2019428 1.278853E-08 0.9793973
vn -0.5609497 4.777367E-08 0.8278499
vn -0.390973 -1.379343E-08 0.9204022

usemtl Default-Material
f 4/4/2 3/3/2 2/2/1 1/1/1
f 6/6/3 5/5/3 3/3/2 4/4/2
f 8/8/4 7/7/4 5/5/3 6/6/3
f 10/10/5 9/9/5 7/7/4 8/8/4
f 16/16/6 11/11/6 9/9/5 10/10/5
f 15/15/8 14/14/8 13/13/7 12/12/7
f 18/18/9 17/17/9 11/11/6 16/16/6
f 12/12/7 13/13/7 17/17/9 18/18/9
f 22/22/11 21/21/11 20/20/10 19/19/10
f 24/24/12 23/23/12 21/21/11 22/22/11
f 26/26/13 25/25/13 23/23/12 24/24/12
f 28/28/14 27/27/14 25/25/13 26/26/13
f 32/32/15 29/29/15 27/27/14 28/28/14
f 1/1/1 2/2/1 31/31/16 30/30/16
f 34/34/17 33/33/17 29/29/15 32/32/15
f 30/30/16 31/31/16 33/33/17 34/34/17
f 38/38/19 37/37/19 36/36/18 35/35/18
f 40/40/20 39/39/20 37/37/19 38/38/19
f 42/42/21 41/41/21 39/39/20 40/40/20
f 19/19/10 20/20/10 41/41/21 42/42/21
f 46/46/23 45/45/23 44/44/22 43/43/22
f 48/48/24 47/47/24 45/45/23 46/46/23
f 50/50/25 49/49/25 47/47/24 48/48/24
f 35/52/18 36/51/18 49/49/25 50/50/25
f 52/54/26 51/53/26 14/14/8 15/15/8
f 54/56/27 53/55/27 51/53/26 52/54/26
f 56/58/28 55/57/28 53/55/27 54/56/27
f 58/60/29 57/59/29 55/57/28 56/58/28
f 62/64/30 59/61/30 57/59/29 58/60/29
f 43/43/22 44/44/22 61/63/31 60/62/31
f 64/66/32 63/65/32 59/61/30 62/64/30
f 60/62/31 61/63/31 63/65/32 64/66/32

